<?xml version="1.0" standalone="no"?>
<!DOCTYPE svg PUBLIC "-//W3C//DTD SVG 20010904//EN"
 "http://www.w3.org/TR/2001/REC-SVG-20010904/DTD/svg10.dtd">
<svg version="1.0" xmlns="http://www.w3.org/2000/svg"
 width="512.000000pt" height="512.000000pt" viewBox="0 0 512.000000 512.000000"
 preserveAspectRatio="xMidYMid meet">

<g transform="translate(0.000000,512.000000) scale(0.100000,-0.100000)"
fill="#000000" stroke="none">
<path d="M0 2560 l0 -2560 1223 1 c707 1 1193 5 1152 10 -151 18 -355 88 -407
140 -39 38 -38 90 1 130 36 35 76 38 141 8 150 -70 279 -94 451 -86 66 3 123
8 126 11 3 2 -4 18 -15 33 -37 53 -55 127 -50 211 6 93 30 153 88 216 57 61
90 81 209 121 207 69 292 132 354 259 59 119 70 188 75 459 l4 249 -32 -17
c-69 -36 -140 9 -140 88 0 34 6 44 37 71 220 183 223 249 25 516 -144 194
-174 289 -113 351 22 21 39 29 66 29 43 0 95 -44 95 -81 0 -27 25 -69 111
-184 171 -228 211 -361 158 -518 -20 -59 -21 -74 -14 -322 11 -392 -12 -554
-102 -734 -86 -173 -202 -262 -446 -347 -120 -41 -159 -70 -178 -134 -6 -21
-9 -54 -5 -75 10 -51 66 -110 120 -125 40 -11 51 -9 151 24 230 77 351 163
488 344 134 179 231 407 279 660 22 111 23 141 23 562 0 505 -4 538 -77 709
-32 77 -38 101 -31 124 18 63 98 89 151 50 61 -45 133 -276 151 -486 14 -162
14 -634 0 -792 -28 -329 -135 -650 -291 -877 -80 -116 -193 -243 -267 -299
-82 -62 -234 -137 -372 -183 -118 -40 -360 -91 -494 -104 -58 -6 360 -10 1193
-11 l1282 -1 0 2560 0 2560 -1257 -1 c-756 -1 -1234 -5 -1198 -10 301 -44 551
-264 635 -559 27 -97 38 -312 21 -430 -15 -100 -55 -217 -102 -297 -19 -32
-75 -99 -125 -150 -80 -80 -103 -97 -195 -141 -125 -61 -216 -82 -346 -82
-212 0 -402 79 -545 226 -74 76 -102 114 -144 196 -55 109 -75 195 -81 351
l-6 138 -52 50 c-167 157 -175 412 -19 579 51 55 141 105 214 119 27 5 -342 9
-937 10 l-983 1 0 -2560z m2280 865 c18 -18 25 -36 25 -64 0 -62 -30 -85 -138
-112 -460 -112 -694 -304 -818 -673 -73 -215 -97 -386 -106 -756 -6 -275 2
-365 39 -452 25 -59 50 -78 101 -78 75 0 105 29 329 308 116 144 229 278 251
297 47 40 181 111 285 150 46 17 79 36 89 51 22 35 12 105 -22 150 -39 51 -64
58 -144 38 -196 -49 -317 -132 -512 -353 -46 -53 -95 -57 -140 -12 -55 56 -35
115 86 248 152 169 412 305 611 320 62 5 78 2 127 -20 101 -46 172 -140 197
-260 28 -137 -54 -284 -186 -332 -153 -57 -217 -89 -268 -134 -16 -14 -110
-127 -209 -251 -99 -124 -204 -250 -234 -281 l-53 -55 9 -110 c11 -120 28
-191 66 -285 35 -87 33 -130 -6 -163 -34 -29 -67 -33 -108 -12 -54 28 -121
218 -143 402 -11 103 -12 104 -38 104 -101 0 -208 76 -260 184 -52 110 -65
203 -64 456 2 564 79 929 253 1197 52 81 176 210 262 274 131 97 333 184 554
238 93 23 130 20 165 -14z m829 -11 c124 -41 337 -149 358 -180 31 -47 13
-121 -34 -143 -41 -19 -72 -12 -143 29 -85 51 -204 102 -305 130 -92 26 -110
36 -124 67 -22 48 -5 104 40 130 32 18 79 10 208 -33z m603 -383 c27 -24 33
-36 33 -70 0 -91 -105 -131 -166 -63 -40 44 -40 93 0 133 40 40 89 40 133 0z
m-1205 -1409 l41 -22 49 23 c39 18 66 22 143 22 89 0 99 -2 158 -34 113 -61
181 -165 190 -290 5 -83 -18 -152 -84 -254 -54 -81 -256 -287 -352 -360 -91
-67 -116 -66 -213 14 -183 152 -329 315 -386 434 -28 59 -33 80 -33 142 0 93
27 166 86 232 82 92 156 123 279 118 58 -3 92 -10 122 -25z m-666 -1141 c21
-22 29 -39 29 -66 0 -27 -8 -44 -29 -66 -73 -73 -193 0 -161 97 23 70 108 88
161 35z"/>
<path d="M2303 1439 c-78 -38 -110 -123 -76 -200 27 -60 144 -198 243 -287
l82 -72 36 29 c49 39 201 195 241 248 17 23 41 62 52 87 17 39 18 52 9 86 -22
82 -107 141 -180 125 -15 -3 -50 -22 -77 -41 -63 -45 -109 -46 -157 -3 -33 28
-82 49 -116 49 -8 0 -34 -9 -57 -21z"/>
<path d="M2078 5109 c24 -4 68 -20 98 -33 l55 -25 73 24 c39 13 101 28 136 33
51 8 14 10 -170 10 -156 0 -220 -3 -192 -9z"/>
<path d="M1915 4901 c-76 -35 -125 -111 -125 -194 0 -45 17 -107 28 -107 4 0
16 21 26 48 26 63 96 171 147 227 l42 45 -39 0 c-22 0 -57 -9 -79 -19z"/>
<path d="M2416 4904 c-233 -56 -435 -293 -436 -510 l0 -41 68 9 c115 15 260
56 348 98 62 30 106 61 169 120 68 65 90 80 115 80 46 0 64 -13 111 -80 63
-90 159 -157 286 -201 l53 -18 0 32 c0 106 -74 262 -170 357 -142 143 -349
201 -544 154z"/>
<path d="M2615 4365 c-138 -101 -354 -176 -572 -201 -37 -4 -63 -11 -63 -18 0
-68 74 -231 140 -308 56 -65 177 -143 263 -170 103 -32 245 -32 345 1 141 46
269 152 335 279 36 69 72 185 63 207 -2 7 -22 16 -43 20 -112 21 -276 107
-363 190 l-45 43 -60 -43z"/>
</g>
</svg>
